<svg version="1.1" xmlns="http://www.w3.org/2000/svg" xmlns:xlink="http://www.w3.org/1999/xlink" x="0px" y="0px" width="100%" viewBox="0 0 672 1024" enable-background="new 0 0 672 1024" xml:space="preserve">
<path fill="#000000" opacity="1.000000" stroke="none" d="M303.016418,602.995239 C308.091980,610.442444 311.650269,618.293640 309.865051,627.683228 C299.392853,626.229919 287.615662,612.627869 289.373047,602.641541 C290.670898,595.266418 287.110016,589.839600 285.083557,582.510925 C283.791718,586.066956 284.139679,588.626160 284.240082,591.191772 C284.479401,597.305969 285.215668,603.351196 281.394623,609.038147 C279.420502,611.976318 281.256927,615.863342 281.753479,619.236755 C283.237885,629.321045 289.874298,636.110535 297.260254,642.300110 C298.711578,643.516357 300.889771,644.558105 302.344177,643.484436 C306.882446,640.134338 310.411896,644.130676 314.370636,644.693176 C315.671295,644.877991 316.583862,646.086121 317.288116,647.274902 C318.486725,649.298218 319.007019,651.409851 317.201904,653.245544 C315.344818,655.134155 313.159393,654.641479 311.341156,653.132263 C308.981659,651.173889 306.542877,649.648987 302.616821,649.884705 C305.627380,653.826660 307.459106,658.020020 312.732361,659.036499 C315.761963,659.620605 317.324432,662.223389 318.020935,665.138733 C318.622864,667.658630 317.871033,669.805359 315.565338,671.136414 C313.358276,672.410461 311.403778,671.621582 309.631897,670.077820 C307.660034,668.359863 306.167389,666.181885 306.231567,663.622681 C306.392426,657.208618 301.760620,654.101990 297.687744,650.442810 C299.204803,654.054749 298.532379,658.259399 301.087585,661.485596 C302.261230,662.967529 302.516785,664.475220 301.218292,666.006775 C300.100952,667.324707 298.611481,667.551453 297.131134,666.939575 C295.252228,666.163025 293.857788,664.399231 294.645508,662.598572 C295.959656,659.594604 295.264496,657.635498 292.874084,655.773865 C292.095215,655.167236 291.748779,654.194214 292.122742,653.073303 C294.568451,645.741455 294.418518,645.278320 288.278625,640.437622 C288.179810,640.359680 287.965820,640.427856 287.140991,640.427856 C288.342072,647.102356 290.480316,653.545044 290.605499,660.310669 C290.669739,663.783325 291.680969,667.233643 291.811829,670.711121 C291.976044,675.075684 292.352386,678.990662 297.349396,680.686646 C298.745636,681.160522 300.149384,683.065735 299.514435,684.284546 C296.698517,689.689880 297.670563,696.541748 292.974945,701.161438 C292.637238,701.493713 292.126007,701.649658 291.148956,702.189575 C287.905121,698.934998 286.915527,694.597168 285.749268,690.366760 C285.531494,689.576843 285.854767,688.537598 285.457153,687.913574 C282.565338,683.374756 279.789124,679.039429 288.001251,677.008179 C288.982819,676.765503 288.948181,674.958923 288.831451,673.792480 C288.188019,667.361572 287.498016,660.935303 286.324371,654.478210 C284.530212,658.474548 281.738556,661.984070 283.070282,666.857056 C283.945374,670.059021 282.178131,673.047852 280.784912,675.885010 C279.788269,677.914429 278.269623,679.667908 275.719818,679.096802 C272.973267,678.481689 272.096008,676.134766 272.294189,673.695618 C272.533173,670.754944 273.095795,668.161804 271.085541,665.284912 C269.412720,662.890930 273.175842,657.817322 277.321808,657.178223 C281.061157,656.601868 282.103699,654.525024 283.026031,651.364685 C285.426697,643.138794 282.613281,635.583008 280.459595,627.084106 C278.378357,631.381287 275.835083,634.502686 276.953003,639.325989 C278.134155,644.421814 272.601715,652.063354 267.490448,653.616638 C266.116516,654.034241 264.885590,653.851868 263.630676,653.253601 C256.155670,649.690125 251.994476,643.588501 250.158234,635.704041 C249.939789,634.766113 249.794632,633.811096 249.539871,632.464172 C245.520264,644.086365 244.757126,658.890808 247.875488,665.673706 C250.104782,664.744812 252.930908,661.865295 254.525406,666.161377 C255.758499,669.483765 253.295151,670.797302 250.597427,671.612549 C251.378448,675.135986 253.981171,676.554443 256.700775,677.925110 C263.541656,681.372681 265.879944,687.377930 266.527100,694.614075 C258.640167,694.274536 252.038132,688.496704 250.819794,680.823242 C250.343246,677.821777 249.001572,675.639038 246.224808,672.819702 C246.317032,680.427124 246.985168,686.439880 252.094559,691.816284 C262.092560,702.336853 263.393158,715.063416 259.652191,728.610718 C259.393890,729.546021 258.987915,730.532532 257.154449,730.906738 C248.321457,720.936035 240.883759,710.139099 243.656555,695.549072 C244.545120,690.873535 245.145645,686.494202 243.768967,681.886047 C242.815384,678.694092 242.576874,675.354248 242.326279,671.952209 C240.851456,676.039429 238.893661,679.880066 239.079178,684.500244 C239.343689,691.088074 236.471924,694.807251 229.136734,697.849487 C227.053635,692.357422 229.315247,687.621826 231.552597,682.506958 C228.438995,681.909729 225.299683,681.135803 225.923096,677.166321 C226.419739,674.003906 228.578918,672.283447 231.715332,671.815735 C238.851471,670.751648 241.403290,667.986511 241.607803,660.395752 C241.796005,653.410522 241.647827,646.416260 241.647827,638.791321 C231.346146,654.634949 219.787933,669.207458 211.046463,685.613220 C208.551559,690.295532 207.953033,695.795471 207.465027,701.108948 C207.079422,705.307373 209.286835,707.519958 213.692261,707.578674 C215.241959,707.599304 216.711777,707.525208 217.846817,708.746094 C219.555161,710.583557 219.847702,712.586731 218.155106,714.562317 C216.560638,716.423340 214.653183,716.449341 212.909393,714.828369 C211.341782,713.371033 209.972702,711.700134 208.183334,709.763245 C208.636658,717.658997 210.717026,720.988464 217.152512,725.154358 C219.335129,726.567200 221.393082,728.681580 220.217361,731.331116 C219.008499,734.055237 218.064499,737.527649 214.520859,738.379333 C211.481918,739.109741 207.151657,734.502502 208.295288,730.470642 C210.005264,724.442139 207.300430,719.847412 205.410294,714.793701 C204.109863,717.770874 203.734009,720.396362 204.553680,724.495789 C205.020035,726.828064 205.203888,728.875000 202.765411,730.070679 C200.924774,730.973267 199.166870,730.597351 197.809433,728.994324 C195.889114,726.726624 196.781281,724.687866 198.400513,722.728516 C199.125214,721.851624 200.236176,721.221436 200.266098,719.502258 C195.746460,716.214355 196.479965,714.037659 201.259094,710.560059 C205.519958,707.459595 203.880478,701.755249 202.572067,696.534607 C197.795609,705.474731 191.747940,713.329163 189.939362,723.257629 C188.690704,730.112183 188.013504,736.683838 195.863525,740.380371 C196.421967,740.643311 196.847412,741.277222 197.228195,741.814209 C199.428879,744.917542 199.240799,748.123474 197.180222,751.121521 C195.667709,753.322266 193.375488,753.878662 191.014618,752.496582 C187.803467,750.616760 186.335876,747.628296 187.224808,744.030884 C187.856323,741.475220 189.231720,739.106567 187.107605,736.533325 C185.780869,738.002258 186.569641,739.801208 186.083374,741.328186 C185.584930,742.893494 184.769150,744.025085 183.001129,744.115234 C181.524826,744.190613 180.484802,743.399231 179.644730,742.285583 C178.502197,740.770996 178.948761,739.092102 180.192017,738.279480 C185.496277,734.812561 186.320831,729.550049 186.350891,722.904907 C180.770645,731.504639 174.595612,738.791077 170.317154,747.283569 C167.757492,752.364319 169.195038,756.697998 173.282654,758.644287 C171.460281,761.909546 169.734756,765.229858 167.779022,768.408508 C166.807144,769.988098 165.272491,771.330872 163.237946,770.901367 C160.960358,770.420532 160.260193,768.436157 159.938965,766.372986 C159.305161,762.302307 160.858109,758.857971 163.116653,755.637878 C164.248535,754.024048 165.894440,752.733765 166.481903,749.469116 C162.877823,752.857666 159.933151,755.570251 157.056458,758.353088 C155.473495,759.884399 155.109833,761.529846 156.130051,763.746826 C157.752701,767.272888 156.391586,769.700989 152.483795,769.973877 C150.767502,770.093750 149.755417,770.778687 148.645920,771.830017 C147.070602,773.322876 145.336685,774.647827 143.221588,775.307983 C140.344421,776.206055 137.111130,777.494141 134.963806,774.477295 C132.894226,771.569641 134.698212,768.604187 136.561661,766.254456 C138.187439,764.204285 140.389923,762.611450 142.470062,760.694458 C142.368896,758.781128 139.284241,758.058350 140.043167,755.752502 C140.846405,753.312134 143.110916,751.863708 145.102692,753.106567 C152.280396,757.585632 157.171234,754.281067 161.981888,749.148804 C164.023132,746.971130 166.318130,745.052795 168.112717,741.752380 C166.180725,742.110352 164.728760,742.379395 163.101273,742.680908 C162.961823,745.554443 163.098099,748.591125 159.164658,748.366272 C155.965073,748.183472 155.631149,746.029236 156.548538,743.154175 C154.403214,743.590393 152.812347,744.038452 151.191803,744.216980 C148.020035,744.566345 145.060944,743.951294 143.440399,740.901978 C142.243500,738.649963 143.326965,736.559021 145.168823,735.195190 C148.019028,733.084778 151.254745,733.011963 153.952087,735.290588 C156.451355,737.401794 158.881577,738.768799 162.300018,739.107361 C171.339508,740.002502 175.355225,734.137024 179.344498,727.236145 C176.830490,726.804993 175.049286,727.887329 173.329346,729.020203 C172.649933,729.467834 172.230438,730.315979 171.545105,730.747559 C168.840866,732.450623 166.013046,733.119019 163.140869,731.137817 C161.552902,730.042419 160.994278,728.423584 162.050980,726.789734 C163.805618,724.076843 166.776749,722.015259 169.649017,723.163147 C177.935867,726.474915 182.234802,721.505493 186.126053,715.903381 C195.620300,702.234436 202.838776,687.155579 212.751770,673.717285 C210.840881,672.269592 210.126053,673.690918 209.299225,674.166870 C203.238953,677.655151 197.058502,680.976318 191.256042,684.858459 C185.953598,688.406128 180.065308,691.782349 181.831329,700.120911 C182.380875,702.715698 180.224304,705.179749 177.959534,706.713745 C176.378189,707.784790 174.408905,707.663330 172.761734,706.551025 C171.260300,705.537109 170.686188,703.985596 170.924088,702.184998 C171.297501,699.358704 172.730728,697.211975 175.185852,695.766235 C177.851089,694.196838 179.628983,691.931335 181.215683,688.257080 C174.254074,691.436890 166.814560,691.485596 162.456833,698.089844 C160.822311,700.567017 160.154633,703.197083 159.463577,705.930054 C158.673508,709.054688 156.989502,711.985107 153.597687,711.798950 C150.230606,711.614075 146.673843,710.004456 144.707916,707.179321 C142.981049,704.697632 144.792740,703.197266 147.637894,702.411987 C152.478119,701.075989 157.745941,700.251953 161.047607,694.850464 C156.693359,693.889160 153.031265,694.238647 149.751099,697.006470 C145.307907,700.755981 140.293747,700.718811 135.134964,699.027100 C133.020248,698.333557 131.159729,696.976196 130.904465,694.560852 C130.665939,692.304077 132.402878,690.981812 133.974747,689.725037 C136.178864,687.962708 138.756073,687.543091 141.506119,687.639526 C144.503433,687.744751 147.444733,688.676575 149.985214,685.453918 C151.458069,683.585571 154.036804,685.196228 154.569031,687.320862 C155.491440,691.003052 158.048996,690.909363 160.742294,690.592346 C165.051987,690.084900 169.096268,688.614929 173.740265,686.748291 C169.591415,684.685974 165.884949,683.632996 161.961502,683.328186 C160.450806,683.210876 158.941360,683.114868 157.674744,682.195190 C155.259537,680.441528 153.034698,678.332520 154.818710,675.141602 C156.618210,671.922974 159.694763,671.812317 162.619293,673.518616 C164.446121,674.584473 165.926758,676.243774 167.654205,677.714661 C169.347702,677.192627 170.708237,675.074524 172.981003,676.438171 C175.690659,678.063965 173.303497,680.422241 173.934631,682.346252 C176.198715,684.461731 178.924194,684.033020 181.516449,683.556458 C187.391022,682.476501 209.344223,669.011841 213.560364,664.074341 C206.218292,663.177185 200.208008,665.088440 196.415924,671.978699 C195.460358,673.714966 193.775040,674.577332 191.748138,674.056824 C190.337875,673.694641 189.472321,672.634521 189.498474,671.120544 C189.541382,668.636536 191.256317,667.763000 193.358521,667.260254 C195.097885,666.844299 197.049088,666.834106 198.347427,664.798279 C193.634689,663.283813 189.219086,662.557129 184.461472,664.671143 C181.700974,665.897766 178.303482,666.122009 176.590408,662.709595 C175.101196,659.743042 177.042618,656.914490 178.814865,655.044434 C181.224960,652.501465 184.481979,653.372925 186.877136,655.649536 C190.223160,658.830017 193.658981,661.404236 199.149353,660.438904 C197.773483,657.873901 196.115875,656.195679 193.922729,654.939697 C191.817413,653.734009 190.713943,651.936646 191.669586,649.520325 C192.372009,647.744202 193.688507,646.312683 195.783585,646.411987 C198.251785,646.528870 200.380295,647.444336 201.070374,650.150635 C201.561768,652.077698 201.981140,654.027283 202.333801,655.984680 C203.085464,660.156738 205.628922,661.334595 209.593719,660.756287 C215.628967,659.875977 220.400070,657.260559 224.424438,652.477783 C238.956329,635.207031 249.182846,615.408997 258.731720,595.191650 C260.352509,591.760132 262.554718,588.551697 263.485657,583.349487 C255.080582,592.491272 244.781403,597.351562 236.287674,604.599609 C231.411804,608.760315 231.527618,611.977173 235.513657,616.826904 C236.241348,617.712280 236.940826,618.731079 237.277557,619.805969 C238.139282,622.556885 236.762772,624.512024 234.281799,625.237488 C231.161148,626.149963 230.888596,623.696045 230.473755,621.436829 C230.131805,619.574768 231.460892,617.490601 229.501083,615.480530 C228.071014,620.239807 228.201080,625.365845 224.485092,628.930176 C222.020142,631.294556 219.404282,635.493347 216.090240,633.874817 C212.771820,632.254089 215.009521,627.872498 215.762756,624.788757 C216.813507,620.486877 218.621765,616.900879 223.483536,615.226746 C226.770050,614.095032 228.695541,610.798157 230.013214,607.240967 C223.158310,610.679199 214.535934,609.303101 209.457031,617.736633 C204.002289,626.794312 193.749588,628.366089 183.959961,629.052063 C179.960785,629.332275 175.689056,629.981567 171.602844,628.079407 C171.223816,625.058044 173.266434,623.289307 174.836014,621.556641 C184.038910,611.397644 195.365936,606.505371 209.214966,608.199890 C213.272125,608.696289 223.333893,604.956055 230.037018,600.403503 C224.283081,600.284424 218.945206,598.990662 213.309433,601.224182 C206.632935,603.869934 200.140610,601.603821 194.372757,597.764404 C190.702896,595.321594 187.309540,592.463379 183.776794,589.779724 C184.491028,588.743530 184.675461,588.197144 185.052246,587.970459 C192.645432,583.402161 210.738190,584.952942 216.642319,591.714294 C223.447296,599.507263 231.415970,597.688721 239.109619,595.459900 C247.521118,593.023315 263.362457,577.891968 268.224304,568.798828 C261.921387,572.072754 255.744141,572.353699 249.926178,574.099243 C241.674042,576.575134 234.915222,573.278015 228.485901,568.729980 C226.237122,567.139221 226.550781,565.362061 228.850174,564.061340 C234.337555,560.957214 240.049576,559.952576 246.095612,562.438965 C247.735016,563.113220 249.208481,563.979675 251.285934,563.121643 C256.486572,560.973816 258.505493,562.699158 257.777954,568.304688 C267.544617,568.526123 274.826721,562.155334 279.584595,549.226624 C279.339111,549.072388 279.072144,548.759338 278.850128,548.788513 C269.484680,550.018250 268.906433,549.399475 267.806427,539.795105 C266.311951,526.746704 267.787689,513.323669 264.006836,500.621460 C260.068359,487.389832 254.969925,474.506805 250.549545,461.413635 C248.690826,455.908081 246.568512,450.497894 245.441040,444.721680 C244.166061,438.189850 245.171097,432.169312 247.846420,426.250000 C255.734634,408.796814 263.570679,391.320007 271.498474,373.884888 C275.513489,365.054871 278.348969,355.834503 280.919769,346.516052 C283.524506,337.074524 288.721222,329.894012 297.679749,325.247681 C319.485931,313.937897 339.456055,299.731049 359.109894,285.109528 C379.029297,270.290436 398.314453,254.683136 416.744690,238.015015 C426.003113,229.641785 432.421234,219.048172 440.067993,209.433899 C464.985809,178.104538 487.169891,144.826508 508.653351,111.095078 C522.447876,89.436203 534.569641,66.831551 544.920593,43.300751 C545.658752,41.622616 545.792542,39.307407 548.620361,38.671467 C548.786194,43.180729 546.401428,46.667053 544.839294,50.347099 C530.250977,84.714348 510.625153,116.204803 489.841278,147.071060 C472.616699,172.651413 454.214325,197.331894 435.550354,221.873108 C423.473999,237.752289 408.634888,250.424927 393.575928,262.970947 C368.337799,283.997498 341.929993,303.478760 313.829468,320.568909 C309.140289,323.420807 304.300232,326.064301 299.361511,328.456390 C292.840271,331.614990 287.981812,336.389984 286.097351,343.284668 C278.269043,371.926270 264.084259,397.922119 252.369598,424.934448 C248.352631,434.197052 247.566315,442.947479 251.181808,452.430603 C255.504425,463.768494 259.232819,475.332916 263.596985,487.887817 C264.280670,479.691833 263.104095,472.637665 262.400696,465.589966 C261.856262,460.135132 260.914825,454.717987 260.085358,449.293976 C258.777100,440.738922 260.816040,432.902252 264.299561,425.078369 C272.222839,407.282837 280.412476,389.586273 287.046661,371.246063 C289.141205,365.455750 290.795471,359.506897 292.850220,353.701050 C293.752319,351.152100 294.471405,348.300629 297.129364,346.932220 C298.769989,347.751587 298.126495,348.772217 297.860016,349.660461 C290.765594,373.310608 282.006134,396.368744 271.151428,418.505707 C264.409882,432.254364 262.045135,445.736420 265.200745,460.924255 C268.135132,475.047516 268.105438,489.676758 269.025970,504.113739 C269.486389,511.334534 269.495758,518.382874 273.947662,525.035461 C277.938385,530.998901 276.771271,538.466980 275.362000,545.862366 C279.484131,546.022644 281.816467,543.714539 283.803864,541.097107 C288.573090,534.815796 291.077576,527.578613 291.546783,519.788391 C291.946991,513.144348 291.429993,506.443390 291.868805,499.803955 C292.136902,495.748169 288.990448,495.158203 285.312561,492.847290 C292.101837,493.190948 292.425781,489.394623 292.941406,485.466644 C294.337616,474.830536 293.392181,464.162903 293.638947,453.513702 C293.740540,449.127258 290.203918,447.984985 286.757019,446.006683 C289.757599,443.981537 291.894012,446.203491 294.810425,446.287354 C304.780487,429.833557 313.300018,412.451233 317.710846,393.161377 C320.393829,393.783417 318.570007,396.747772 320.791595,398.654755 C330.922943,392.000763 338.280182,382.080750 347.285919,374.386536 C346.416138,371.026825 342.263763,371.185272 342.276581,367.937775 C342.596436,367.744293 343.001556,367.375305 343.113403,367.449371 C347.842285,370.579956 352.967468,370.464386 358.363098,369.858276 C363.115845,369.324341 367.958588,369.616821 372.452209,370.735046 C373.815613,368.644073 371.109680,367.839417 371.972504,366.060760 C375.102997,366.783905 375.231232,370.886688 378.327118,371.964966 C380.800781,367.828491 379.521484,362.626404 382.328003,358.778992 C384.463623,359.421906 383.711761,360.902893 383.608124,362.121216 C381.379486,388.324219 372.094666,411.477844 354.431549,431.242798 C343.909576,443.016815 333.291046,454.744446 326.441650,469.329651 C321.325623,480.223907 319.528717,486.005737 320.899780,493.220062 C324.392578,487.217133 326.167053,480.430969 332.557953,477.333099 C339.844177,473.801239 345.258026,477.956818 350.949127,482.285400 C361.774567,472.252319 372.851807,462.506622 381.347717,450.166656 C389.583313,438.204803 398.840668,426.985870 409.461884,417.081360 C424.135651,403.397736 433.931732,385.969025 446.219879,370.463623 C462.184326,350.319458 474.369049,328.124786 482.545685,303.632294 C487.445496,288.955322 497.014832,276.684570 505.617462,264.016571 C527.696594,231.503387 554.380554,202.850693 581.199829,174.321793 C607.794739,146.031509 635.562622,118.898933 663.031860,91.471848 C664.284119,90.221481 665.213867,88.441750 667.641968,88.475250 C669.435608,90.640236 667.636230,91.911629 666.294800,93.266838 C645.662415,114.110435 625.004761,134.929214 604.398254,155.798325 C586.962219,173.456467 570.216675,191.758987 553.573486,210.163284 C533.528687,232.329163 515.397400,255.930832 498.817139,280.789124 C490.770294,292.853485 485.771149,306.134613 480.684601,319.560638 C471.793030,343.030273 456.312073,362.563049 442.064087,382.926147 C428.600159,402.168732 412.501404,418.921570 396.916473,436.231445 C389.886993,444.038940 384.140167,452.835632 377.919983,461.228485 C378.361389,463.521179 380.395630,464.404755 381.610229,465.910797 C385.687622,470.966522 388.859497,476.319366 388.273560,483.150696 C387.785797,488.837372 384.782867,491.234772 379.227570,490.214630 C375.916870,489.606628 372.895355,488.184418 370.054688,486.386353 C368.789124,485.585236 367.573639,484.680603 366.238922,484.017151 C359.366760,480.601166 357.700348,480.818939 352.402405,486.314789 C349.517670,489.307190 346.939331,492.592957 344.172394,495.701538 C342.307129,497.797028 342.308899,499.635681 344.229309,501.817078 C346.975006,504.935883 349.678192,508.144440 351.969269,511.599945 C356.357971,518.219238 358.691254,525.374146 356.083282,533.372314 C353.941742,539.939941 349.955994,541.630676 343.758698,538.619385 C338.881470,536.249512 334.943085,532.649414 331.216064,528.818115 C324.312775,521.721619 315.481476,517.209717 307.824402,510.581909 C305.080292,514.928711 302.978455,518.194458 304.855164,523.655640 C308.093964,533.080566 310.742188,543.043030 303.890320,552.023499 C304.982727,554.965515 309.622650,554.779175 308.555420,559.540222 C301.753021,556.462830 294.424072,555.493958 289.533142,549.513428 C283.863190,555.918640 283.133270,571.230835 287.967072,579.815125 C290.132050,578.359314 292.142914,574.681335 295.170013,578.296509 C297.476166,581.050659 295.674286,583.088989 293.107269,585.094971 C298.529938,587.964844 302.849426,582.601685 307.863464,584.308899 C312.459137,585.873657 316.877472,587.497070 321.257446,590.558777 C317.741791,595.124512 312.885681,595.837402 307.635132,596.575195 C307.754364,599.463257 309.513275,603.694824 303.260406,602.732544 C301.087738,599.916748 301.788971,597.754211 303.893951,595.814880 C298.769226,593.230164 295.361755,588.901001 289.928558,586.709412 C291.564423,591.617065 292.700928,596.170837 297.684692,598.564026 C299.705261,599.534363 301.253326,601.488708 303.016418,602.995239 M313.271423,417.694092 C309.983734,426.247803 306.394104,434.688477 301.444733,442.410797 C298.977966,446.259583 299.425629,449.456665 301.797760,452.918457 C305.666138,458.563934 308.376434,464.845398 311.533264,470.882019 C312.595154,472.912567 313.330963,475.192444 315.381073,476.563110 C315.700439,476.341949 316.096161,476.219238 316.203339,475.971649 C318.711517,470.177795 321.207977,464.378723 323.665588,458.563232 C326.112732,452.772552 322.512573,445.567535 315.840027,443.868561 C320.493683,441.289642 320.817352,436.962616 321.307709,432.689850 C321.704559,429.231964 322.445038,425.789368 322.540985,422.326324 C322.717133,415.969452 323.361176,409.531128 321.111176,402.493042 C316.674805,406.913940 315.962616,412.410828 313.271423,417.694092 M277.396606,622.152954 C277.343536,621.000305 277.442963,619.816406 277.213745,618.699951 C274.983032,607.832886 274.449951,597.085205 277.580536,586.187866 C279.535461,579.382812 280.641144,572.296997 280.751740,564.622559 C280.117950,565.370178 279.730316,565.673218 279.542969,566.070618 C271.323364,583.506287 262.972076,600.882446 254.999435,618.430603 C252.253281,624.474976 252.077591,631.021362 254.406036,637.393433 C255.183746,639.521667 256.520691,641.113953 259.283264,640.644165 C261.916840,640.196228 261.573578,638.278625 261.706116,636.477478 C261.969025,632.904114 264.079803,630.930481 267.509949,630.923950 C275.906464,630.907959 275.937836,630.989868 277.396606,622.152954 M331.691986,439.545349 C336.881775,425.534882 345.185120,412.572205 346.538849,397.380371 C344.793213,396.434265 343.349152,397.916840 342.129028,396.533081 C349.533173,389.893036 354.888519,381.590393 362.033356,373.856781 C355.570801,372.536957 351.708923,373.847168 348.068817,378.131195 C342.925995,384.183746 337.068909,389.690948 331.097839,394.955719 C327.359344,398.252014 325.812866,401.857330 326.008453,406.721954 C326.281769,413.519135 326.528656,420.317932 325.522003,427.127289 C324.873413,431.514587 326.150055,435.703033 328.729004,439.403351 C329.420349,440.395294 330.065369,441.513336 331.691986,439.545349 M334.651489,505.440613 C327.906555,509.448059 324.718018,508.681122 320.697388,502.206299 C318.706299,498.999878 317.658264,495.416840 316.505493,490.879211 C314.169220,495.838562 312.224213,499.848419 310.397491,503.911469 C309.784058,505.275970 309.351990,506.807495 310.767059,508.045532 C317.028473,513.523376 323.320831,519.412964 331.116211,522.136841 C337.530823,524.378235 342.589447,527.778381 347.268768,532.306519 C348.381744,533.383545 349.038269,535.266113 351.096313,534.949097 C357.808929,528.421631 350.898804,511.510468 339.056366,501.995361 C337.813965,503.004242 336.539612,504.039062 334.651489,505.440613 M362.340759,380.885101 C358.832764,392.333069 353.813446,403.204376 349.536682,414.358856 C347.551147,419.537415 347.988831,424.217743 351.500000,428.934967 C363.701569,415.499481 372.008270,400.425751 376.322144,383.179718 C378.023468,376.378052 376.338593,374.092590 369.384125,373.493134 C364.467316,373.069275 364.356476,377.442932 362.340759,380.885101 M302.776978,500.146484 C304.992889,501.921204 305.333740,499.608002 305.846161,498.531982 C308.059509,493.884552 310.102692,489.155853 312.189819,484.448730 C312.750153,483.184967 312.860046,481.906372 312.248932,480.592224 C307.730011,470.875000 302.720734,461.427612 296.403625,450.972382 C297.619141,463.038147 297.839203,473.658295 296.211365,484.131592 C295.165497,490.860504 297.350586,495.680267 302.776978,500.146484 M333.196442,480.460388 C327.777283,484.399200 325.270447,490.188110 323.453552,496.294769 C322.498657,499.504211 323.853455,502.255798 326.674103,504.006989 C329.391083,505.693787 331.411499,503.777832 333.345123,502.219818 C337.654510,498.747589 341.133820,494.520111 344.280914,489.992706 C348.493744,483.932251 347.738525,481.681915 340.626801,479.570740 C338.335663,478.890564 336.030304,478.815887 333.196442,480.460388 M380.571442,470.006653 C378.468109,468.023468 376.886322,463.441650 373.458313,465.799072 C368.676697,469.087280 364.835693,473.743286 360.592163,477.813965 C360.768677,478.366608 360.945221,478.919281 361.121735,479.471954 C369.239258,479.189636 377.003143,480.094727 383.203491,485.805878 C385.804901,480.653412 385.289062,477.729218 380.571442,470.006653 M294.097687,537.481262 C289.439972,546.628296 289.981628,548.146790 299.287323,552.029724 C306.517578,546.312500 305.604858,532.223938 300.609100,524.301453 C298.522491,528.508362 296.464386,532.657837 294.097687,537.481262 M182.590439,625.871216 C192.151855,625.114807 201.432159,623.708374 208.237518,614.560852 C201.835403,616.457092 196.845322,620.421265 189.226700,620.745605 C192.345398,617.430725 195.468399,617.146606 197.981262,615.821045 C200.621445,614.428467 203.349289,613.202087 206.870346,611.501465 C194.338791,609.469482 178.825287,618.763672 176.699127,625.904968 C178.450516,625.904968 180.097000,625.904968 182.590439,625.871216 M254.245209,699.479248 C253.266998,698.005859 252.522842,696.333008 250.573029,695.210999 C250.433640,700.526611 254.148254,705.045776 252.867905,710.287781 C249.526154,706.220276 249.627029,700.803467 247.080383,696.216431 C244.552414,705.239563 249.828796,720.000549 257.384705,724.356995 C258.569580,715.822510 258.614105,707.773315 254.245209,699.479248 M296.697357,603.590332 C297.586823,606.462158 300.046112,608.825500 299.839783,612.676758 C295.778870,610.478577 295.767242,605.902222 292.817291,603.432861 C292.159454,611.230835 298.921967,620.609131 306.742767,622.975281 C307.268890,614.024475 302.464630,604.609375 295.833282,601.666992 C296.048065,602.157288 296.247559,602.612610 296.697357,603.590332 M202.955734,598.568237 C205.982559,599.179199 209.008896,599.776367 212.075287,598.361267 C209.316193,595.798523 204.914536,596.892639 202.061676,593.459656 C206.805817,592.438904 210.629745,594.948425 215.658768,595.137024 C207.624573,587.769409 199.025208,588.710754 189.358200,589.436157 C193.399231,594.077271 197.578186,596.550659 202.955734,598.568237 M245.489273,568.762268 C247.255219,567.062439 247.020676,565.750122 244.667526,565.000000 C240.269211,563.597961 236.001251,563.563171 231.887375,566.210266 C236.245880,571.468811 242.174042,573.043884 248.142090,570.709106 C247.311386,570.239380 246.480698,569.769714 245.489273,568.762268 M295.255920,513.080627 C295.255920,514.712769 295.255920,516.344910 295.255920,519.305908 C302.872131,506.355682 302.832214,503.695374 295.261169,499.028595 C295.261169,503.632599 295.261169,507.914795 295.255920,513.080627 M342.893860,429.582947 C340.866272,434.845215 338.112610,439.846588 336.560364,446.293457 C339.495209,442.915344 341.544464,440.039093 344.103821,437.727600 C348.317780,433.921631 348.540405,430.049316 345.096252,425.250214 C344.377625,426.665833 343.793854,427.815796 342.893860,429.582947 M289.740723,693.486267 C290.403015,694.703125 290.298462,696.472168 292.321564,696.946228 C294.768250,692.977966 294.470703,688.795105 293.469360,684.562744 C293.137115,683.158569 292.198822,682.192871 290.675751,682.195801 C288.840454,682.199341 288.808929,683.831299 288.517212,685.023010 C287.860443,687.705994 288.811005,690.240967 289.740723,693.486267 M146.553085,763.907227 C146.584351,763.602905 146.644791,763.296875 146.626328,762.995605 C146.621719,762.920410 146.326584,762.768250 146.225418,762.807434 C141.935852,764.469666 138.601166,767.036072 137.307495,771.767578 C142.639313,773.373718 145.943512,771.551697 149.127548,765.596313 C148.654099,764.147583 145.447662,768.738953 146.553085,763.907227 M145.448135,691.455261 C141.520004,691.113159 137.288147,689.678162 134.218369,694.359131 C138.449081,697.886963 142.433701,697.235657 146.605179,695.546326 C146.403015,694.113159 144.380432,693.289734 145.448135,691.455261 M306.628967,587.312805 C302.670868,586.791870 303.717621,589.694702 303.351105,591.968567 C307.572144,593.618042 311.471741,594.389343 315.265900,590.921814 C312.879089,588.533997 310.051392,588.108215 306.628967,587.312805 M270.387848,526.299866 C270.127228,532.032959 270.293732,537.712952 272.638336,543.127136 C273.851196,537.138367 274.631592,531.198914 270.387848,526.299866 M224.197769,622.759583 C224.422058,621.401855 225.441681,619.920349 223.443665,618.711304 C219.837311,621.118103 218.693604,624.618835 218.477509,629.116394 C221.825485,628.217590 222.779465,625.709106 224.197769,622.759583 M272.149017,635.539551 C271.026031,633.209290 269.006042,634.679810 267.427460,634.531677 C265.705719,634.370056 264.847076,635.712036 264.509583,637.266968 C264.254883,638.440430 264.370361,639.608215 265.574432,640.247742 C267.217010,641.120178 268.369080,640.124390 269.410156,639.032654 C270.304810,638.094482 271.125031,637.085266 272.149017,635.539551 M163.463516,766.238525 C165.709747,767.977600 166.168106,765.866577 166.759369,764.570801 C167.930649,762.004150 168.248962,759.449646 165.941895,756.979614 C163.497711,759.710693 163.100464,762.556641 163.463516,766.238525 M190.477615,744.137451 C190.123337,746.362427 190.029617,748.537476 192.624329,749.520386 C193.646683,749.907654 194.641006,749.379150 195.156158,748.449707 C196.028763,746.875427 195.941864,745.207825 194.829651,743.801208 C193.671890,742.336975 192.271240,741.617554 190.477615,744.137451 M261.333221,689.949402 C262.889832,684.769104 258.579529,683.595398 255.594345,680.443237 C254.406052,686.113098 257.471832,688.027954 261.333221,689.949402 M310.625275,661.662842 C307.841064,664.093384 309.779602,665.972534 311.466370,667.703186 C312.554596,668.819763 314.072205,668.685303 314.842529,667.347839 C316.288666,664.837219 314.433197,663.451172 312.637085,662.194824 C312.247833,661.922546 311.731506,661.831909 310.625275,661.662842 M182.639954,656.650269 C179.486038,657.212708 180.467377,659.910034 179.429626,661.981812 C182.414139,662.488586 184.610992,661.849548 186.932190,660.635132 C186.286957,658.547058 184.756073,657.679443 182.639954,656.650269 M325.319977,439.296814 C325.206390,439.178223 325.109039,439.034332 324.974670,438.948120 C324.842133,438.863098 324.548126,438.770752 324.536072,438.793488 C322.368927,442.883362 324.712402,445.814117 326.957428,449.051788 C330.655579,445.065216 326.781158,442.636353 325.319977,439.296814 M275.387909,673.964355 C275.834198,675.470764 276.897339,675.991760 277.816620,674.681824 C279.550171,672.211487 280.831726,669.494507 279.059113,666.144653 C276.490051,668.181091 275.726837,670.634399 275.387909,673.964355 M157.533737,677.544739 C158.968628,680.728821 161.604874,680.743530 165.286514,680.388306 C162.662827,678.049927 162.053436,673.422668 157.533737,677.544739 M271.095490,576.512390 C273.515594,571.576965 275.935730,566.641602 278.355835,561.706177 C274.600098,567.692871 270.768494,573.638428 269.143127,580.642822 C269.696869,579.473511 270.250610,578.304260 271.095490,576.512390 M342.911530,534.356689 C344.098511,534.979675 345.285492,535.602661 346.472473,536.225708 C343.672943,532.628052 340.786957,529.333313 335.679321,527.612000 C337.547974,530.830444 339.876617,532.492249 342.911530,534.356689 M156.469986,706.191528 C156.542099,704.991333 157.471237,703.321594 155.294434,703.170166 C153.722046,703.060852 152.432968,703.954163 151.717072,705.407471 C151.256393,706.342712 151.148865,707.480835 152.072510,708.118347 C153.892944,709.374817 155.124222,708.225403 156.469986,706.191528 M213.036758,727.906921 C210.601929,731.618164 210.630768,731.793884 214.043564,734.041504 C216.359848,729.107666 216.359848,729.107666 213.036758,727.906921 M150.878738,737.401428 C149.222916,737.070923 147.500839,736.799072 146.798599,738.853210 C146.403442,740.009094 147.395889,740.652161 148.330338,740.986755 C149.959335,741.570190 151.758408,741.521912 152.857895,740.201538 C153.930893,738.913086 152.353851,738.318054 150.878738,737.401428 M268.012848,648.355103 C268.854034,646.845032 268.832458,645.388000 267.134399,644.645630 C265.849060,644.083740 265.055786,645.243103 264.407135,646.194397 C263.767181,647.133057 262.896545,648.202759 263.843811,649.297363 C265.193481,650.856934 266.457275,649.888672 268.012848,648.355103 M245.182388,630.146301 C249.009827,628.179626 250.493713,624.994019 250.192230,620.032898 C248.178711,623.710266 246.520645,626.738525 245.182388,630.146301 M174.611145,702.857605 C178.656860,703.141602 179.199234,702.322510 177.688934,698.097107 C175.553223,698.676086 174.414902,700.013489 174.611145,702.857605 M232.363831,688.779907 C232.293427,690.032410 231.370255,691.212891 231.998703,692.567932 C235.916748,689.379639 236.055862,689.032837 234.941208,685.284363 C233.433151,685.653870 233.141785,687.032410 232.363831,688.779907 M286.637146,543.620361 C284.815674,547.064514 282.994202,550.508667 281.172729,553.952820 C283.766144,550.755249 286.306763,547.543945 286.637146,543.620361 z"/>
<path fill="#000000" opacity="1.000000" stroke="none" d="M364.075348,449.904602 C363.134186,448.384827 361.439789,447.793182 361.400757,446.089081 C366.538116,442.091827 374.872925,444.281708 377.152954,450.456970 C374.479462,450.595886 373.109772,448.246643 371.009369,447.557648 C369.040527,446.911835 367.171112,445.620514 364.725403,447.308868 C366.853455,449.876038 369.663177,450.975433 372.090790,452.532135 C375.074371,454.445312 374.113159,455.768768 371.180817,457.501190 C370.347534,453.614838 366.567963,452.702972 364.075348,449.904602 z"/>
<path fill="#000000" opacity="1.000000" stroke="none" d="M251.943405,579.821533 C251.576645,580.620667 251.372864,581.094360 251.033096,581.430664 C248.778992,583.661682 245.882996,584.546021 243.693527,582.166382 C241.578384,579.867371 243.829254,577.965271 245.896912,576.792114 C248.976776,575.044617 251.241531,575.651306 251.943405,579.821533 z"/>
<path fill="#000000" opacity="1.000000" stroke="none" d="M266.330505,437.499939 C266.862457,435.694702 267.349030,434.219177 267.997162,432.253723 C270.257874,434.832001 270.934723,437.293274 268.878754,439.450409 C267.685608,440.702332 266.633667,439.262543 266.330505,437.499939 z"/>
</svg>
