<svg version="1.1" xmlns="http://www.w3.org/2000/svg" xmlns:xlink="http://www.w3.org/1999/xlink" x="0px" y="0px" width="100%" viewBox="0 0 528 800" enable-background="new 0 0 528 800" xml:space="preserve">
<path fill="#000000" opacity="1.000000" stroke="none" d="M269.024048,71.043564 C267.197571,65.024643 267.132996,59.301125 271.345154,54.047401 C273.674652,51.141842 275.387329,51.644222 276.909943,54.612610 C279.298859,59.269833 280.790955,64.270897 277.154480,68.727798 C270.975708,76.300621 271.931610,85.994698 268.640106,94.606651 C272.116760,91.381210 276.650940,90.130936 279.815369,86.656593 C283.618683,82.480804 288.810974,81.832397 294.118744,82.897392 C297.065857,83.488731 298.009399,85.168869 295.838165,87.896881 C292.676270,91.869560 288.164276,93.370186 283.801636,92.193657 C278.250031,90.696480 274.927063,93.390572 271.462494,96.475471 C267.872070,99.672401 265.913177,103.609428 265.298279,108.575005 C263.658447,121.818176 266.130829,134.388748 270.537109,146.740906 C273.107910,153.947647 275.173645,161.259216 275.520050,168.965256 C275.557922,169.807632 275.930420,170.563004 277.848541,171.080231 C278.551697,165.723709 281.559113,161.181641 282.898712,155.942719 C283.809998,152.379028 286.801117,149.266922 284.561279,145.075989 C283.626434,143.326782 283.022919,141.611679 281.342072,140.255951 C278.078400,137.623596 277.224670,133.924866 278.013794,129.893463 C278.653229,126.626694 280.678955,126.225685 283.073029,128.042892 C286.026489,130.284683 287.747406,133.295837 286.885345,137.150192 C286.429596,139.187927 286.339264,141.082245 287.661499,143.571640 C289.740082,138.310394 293.502136,134.139420 292.633453,127.795593 C289.878357,128.786652 288.692596,127.607933 288.716675,124.822197 C288.740479,122.070984 290.006500,121.597115 292.554016,121.811646 C295.192139,122.033806 295.384552,118.898361 297.012115,117.586456 C298.780579,116.161003 300.240662,113.448730 302.765106,114.445953 C305.497437,115.525299 304.126434,118.532341 304.332306,120.730331 C304.654144,124.166924 303.395203,127.418343 300.606079,128.981491 C295.075806,132.080856 293.488129,137.552780 291.252716,142.642273 C289.011627,147.744705 287.190735,153.031693 284.920410,158.926468 C290.550354,157.269730 293.256775,153.986816 295.318298,149.563385 C296.272400,147.516190 297.151855,142.727005 299.948059,144.521439 C303.411865,146.744324 297.899445,148.306824 297.581177,150.677094 C297.559418,150.839050 297.547455,151.002304 297.475800,151.707825 C300.515564,150.244064 302.726929,147.731201 305.873230,147.132812 C309.345001,146.472519 313.058533,145.637299 315.310486,149.233383 C316.547150,151.208160 312.125580,155.436920 308.151306,156.273529 C306.533020,156.614197 304.856750,156.976761 303.224762,156.907486 C291.051788,156.390732 282.604889,162.686096 279.844971,174.764801 C276.875397,187.761307 276.311981,200.753067 277.312317,214.206299 C278.374237,228.487762 283.910095,241.111877 287.923676,254.343445 C290.999481,264.483521 294.444702,274.524750 294.894073,285.324921 C296.355713,280.162231 297.380188,274.965668 298.052002,269.638123 C299.376404,259.135132 303.330475,249.380020 308.054840,240.039932 C312.411377,231.426971 308.638794,224.333298 304.719788,217.278122 C302.524536,213.326172 300.814911,209.709900 302.468781,205.103088 C303.729919,201.590179 305.465149,202.022034 307.551697,204.086349 C310.273560,206.779221 310.973022,210.322830 310.246429,213.806656 C309.198517,218.831253 310.299805,223.333755 312.401001,227.879684 C316.229919,222.152863 318.594360,215.800766 320.726074,209.321671 C322.240967,204.717209 322.429535,200.512894 318.295044,197.060730 C317.679657,196.546906 317.183472,195.802170 316.842590,195.066711 C316.203491,193.687897 315.554077,192.058044 317.203217,191.040222 C318.939026,189.968933 319.932831,191.297012 320.712891,192.699280 C321.188385,193.553970 321.673645,194.403214 322.311493,195.532898 C324.033813,192.303192 323.501434,189.736954 321.337311,187.237656 C318.298553,183.728302 317.975861,179.745789 319.775879,175.567734 C320.840271,173.097168 322.449585,172.912827 324.487061,174.585846 C327.924957,177.408829 329.053589,182.451187 327.291565,187.304657 C326.242188,190.195114 324.200653,193.004974 326.604492,196.535934 C328.537018,193.742172 330.493317,191.142197 332.162750,188.369522 C332.703766,187.471054 333.033936,185.749954 332.543213,185.033035 C327.386139,177.498444 335.558319,177.418533 337.997192,174.174408 C340.327942,175.470688 338.173615,177.387177 339.162323,178.737976 C343.438629,176.580429 342.326111,172.046768 343.908875,168.347168 C344.004547,167.984299 343.981415,168.023514 343.981415,168.023514 C346.688690,165.024063 349.701813,162.474411 353.618591,161.147293 C356.650299,160.120056 358.066681,161.449799 357.270355,164.238846 C356.135895,168.212067 354.903961,172.718582 350.607666,174.287476 C344.047180,176.683197 340.280701,181.968384 336.364441,187.003052 C332.423401,192.069641 328.785828,197.462692 326.464600,204.493469 C331.256561,202.903076 335.439484,201.648911 339.521423,200.124359 C344.092010,198.417313 348.542603,197.723312 352.905060,200.568451 C354.192932,201.408371 355.290009,202.453186 355.166687,204.184677 C355.028717,206.122040 353.367096,206.586899 351.996124,206.880798 C348.229340,207.688232 344.384521,207.990433 340.709686,206.457184 C334.308685,203.786484 327.830933,205.330597 323.895264,211.014435 C321.249542,214.835297 319.951172,219.295609 319.023926,223.995987 C325.539368,222.616165 326.596008,221.378693 326.403656,215.113174 C330.523285,216.751953 334.318634,214.171066 338.366577,214.657944 C339.630066,214.809921 341.181976,214.362305 341.917572,215.855362 C342.704865,217.453491 341.813660,218.744507 340.825012,219.923203 C339.098236,221.981888 337.089355,223.512497 336.392151,226.648071 C335.659485,229.943192 328.699524,228.497696 326.278442,224.571655 C316.542877,226.612000 313.180298,234.225769 310.297180,242.776428 C312.975311,243.120880 314.343750,241.544083 315.157532,239.852524 C317.284760,235.430893 321.440674,234.590958 325.495422,233.843613 C328.605804,233.270325 329.968262,234.749619 328.424469,237.934204 C326.737244,241.414581 323.811005,243.349792 320.114166,243.428970 C312.484100,243.592438 308.285126,248.637573 305.518951,254.440125 C301.878021,262.077667 300.532623,270.558746 299.436188,278.961853 C297.025024,297.440430 297.517242,316.141449 295.429260,334.615417 C294.487396,342.948792 293.626617,351.457214 290.971344,359.571320 C290.483215,361.062897 290.589478,362.748993 290.758057,364.450256 C298.850067,347.234283 310.117249,332.218750 321.392517,317.164917 C324.340424,313.229034 325.483826,308.086639 326.084534,303.098450 C326.413727,300.364899 324.468872,298.492188 322.751434,296.672913 C321.844055,295.711761 320.688873,294.966431 319.872406,293.942719 C319.047363,292.908234 318.233276,291.499939 319.623657,290.412933 C321.096252,289.261658 322.365173,289.996063 323.398315,291.404724 C324.169739,292.456543 324.130341,294.030762 326.359772,295.085052 C326.754395,291.557312 326.550293,288.635132 323.502594,286.824554 C318.437897,283.815765 318.214050,279.165253 318.685852,274.170380 C318.967316,271.190552 320.270782,270.220306 322.927094,272.140778 C323.062134,272.238434 323.197144,272.336060 323.331696,272.434387 C326.703094,274.897888 328.311951,279.733734 333.633392,279.598450 C335.867523,279.290833 337.641663,276.502808 341.180542,277.653137 C341.633087,281.471558 341.207672,285.296021 337.620270,287.490479 C330.052765,292.119659 328.818298,299.387421 329.212402,307.934692 C333.045410,303.869751 336.809937,299.737366 340.729126,295.757233 C345.463837,290.948853 351.540344,287.502533 354.237152,280.667419 C355.552979,277.332458 355.786957,274.835052 353.680908,271.911285 C352.790741,270.675476 350.209564,268.767792 352.642822,267.383270 C355.869049,265.547546 354.798767,269.636749 356.048615,270.703491 C356.296631,270.915192 356.483337,271.198730 356.857330,271.634338 C359.533356,268.960999 358.436127,266.029419 357.165039,263.500610 C355.103088,259.398407 355.081177,255.612350 357.364471,251.649734 C358.193176,250.211456 358.590790,248.123581 360.523163,248.251938 C362.785034,248.402145 363.882477,250.546509 364.222260,252.466232 C364.856293,256.048492 365.311249,259.734528 363.209045,263.132782 C362.608246,264.103943 362.202911,265.196045 361.700745,266.247742 C362.955414,266.945862 363.282196,265.842499 363.902832,265.463745 C365.451080,264.518860 367.047241,264.339417 368.567017,265.375183 C369.313293,265.883789 369.302155,266.852600 369.063232,267.667633 C368.493439,269.611176 366.848053,269.367004 365.367462,269.347229 C362.309448,269.306427 360.739044,271.518524 359.947296,273.785126 C358.792542,277.090881 357.272644,280.195709 355.601044,283.407196 C364.510101,281.654419 373.540466,273.580322 376.036713,265.566498 C377.139404,262.026459 378.979980,258.943085 383.027649,258.071655 C385.237732,260.218689 383.889465,262.702820 384.360107,265.118225 C385.640625,265.445404 387.213074,265.502136 388.359283,266.230072 C389.698853,267.080841 389.884186,268.768341 389.454071,270.290497 C389.091797,271.572449 387.961121,272.375549 386.758606,271.892517 C379.286224,268.890991 375.675873,274.692596 371.184967,278.694580 C378.222504,276.980957 385.667358,278.633636 392.521912,275.541229 C397.046478,273.500031 401.414124,274.957611 405.372498,277.324127 C409.049530,279.522400 408.937592,282.181000 405.138245,283.898071 C400.767334,285.873413 395.651306,287.329071 391.744598,284.249359 C385.690338,279.476715 379.372559,280.712158 372.793549,281.331787 C364.439972,282.118530 352.039795,288.639648 346.961456,295.356293 C353.290497,295.556458 359.367767,295.933655 365.484192,295.088287 C370.411560,294.407257 375.199463,294.656525 378.644226,299.093964 C380.629486,301.651276 380.769287,303.503418 377.033691,304.463257 C371.671021,305.841187 367.038971,304.495697 363.347778,300.620636 C360.915833,298.067596 358.226837,296.925323 354.888489,297.420074 C347.312958,298.542725 340.057343,299.896973 334.551727,306.403198 C329.077454,312.872375 323.784393,319.430878 318.957977,326.576630 C326.057617,322.983551 334.031158,321.706238 340.745880,317.397217 C342.276642,316.414917 343.805817,315.426697 344.600128,313.615662 C346.575439,309.111908 350.555939,309.122803 354.344574,309.977997 C357.762177,310.749481 358.048462,313.585205 356.558960,316.297668 C355.089661,318.973419 355.560211,320.659058 358.334442,321.787781 C358.485687,321.849335 358.626556,321.951782 358.752106,322.058838 C361.324860,324.252136 364.061005,326.548462 362.720245,330.384125 C362.102905,332.150085 354.908936,331.610260 352.454315,329.762421 C351.532196,329.068268 350.688263,328.232971 349.940826,327.350128 C345.662415,322.296539 345.265228,322.119141 338.317078,322.763000 C339.221130,325.551880 341.647552,325.422546 343.785889,325.979248 C345.335175,326.382568 346.514679,327.581543 345.833160,329.348145 C345.197357,330.996094 343.666534,330.930939 342.520050,330.011719 C339.254120,327.393341 335.869263,324.053650 331.623077,324.730743 C325.277191,325.742676 320.059174,329.732025 315.195618,333.809509 C304.517456,342.761719 299.611633,355.569305 293.251526,367.374603 C286.771027,379.403290 284.472900,392.632111 282.031067,405.905701 C279.966980,417.125977 278.283264,428.443909 275.244537,439.492889 C273.634186,445.348389 272.713257,451.393494 271.819031,457.533752 C277.435760,445.405731 287.119171,436.453278 295.278534,426.324524 C298.485565,422.343475 301.114838,417.815704 301.232880,412.350037 C301.250122,411.551758 301.521362,410.634796 301.982422,409.993896 C303.286194,408.181610 303.157135,403.963867 306.536011,405.398285 C309.707977,406.744812 308.612701,410.279755 307.560425,412.917999 C306.086517,416.613312 302.185150,418.728363 300.447235,423.824341 C307.483826,418.519958 315.620941,416.635406 319.110352,408.369690 C320.508087,405.058746 321.045593,402.497131 318.428101,399.799133 C317.853973,399.207428 317.337799,398.513702 316.967743,397.779816 C316.312653,396.480835 316.167603,395.009888 317.683258,394.326721 C319.343750,393.578278 320.051788,394.853485 320.443237,396.261292 C320.652435,397.013885 320.390411,397.957642 321.507812,398.506653 C322.911194,395.811890 322.579071,393.781403 320.190765,391.611115 C317.017761,388.727783 315.957886,384.900452 317.268402,380.681854 C317.742523,379.155487 318.027313,377.177795 320.138672,377.053284 C321.831360,376.953522 322.668518,378.453583 323.582397,379.629517 C324.905640,381.332306 324.902832,384.721588 328.672455,383.273010 C329.466583,382.967804 330.220734,384.280151 330.344421,385.389008 C330.512756,386.898743 329.970276,388.330933 328.611450,388.645050 C324.216919,389.660919 325.398438,392.710236 325.232513,397.086121 C330.387512,391.948761 331.177277,383.620300 339.758972,384.688171 C341.735840,389.699951 338.461761,392.662506 334.788391,394.413391 C322.519440,400.261322 326.506866,400.697266 320.738922,411.994324 C328.875610,409.393463 336.443481,406.285583 342.777710,401.162872 C345.913818,398.626587 347.909149,394.482330 346.299438,389.947632 C345.197510,386.843414 345.704865,384.057312 347.259064,381.330536 C348.044250,379.952972 348.313202,377.844757 350.499054,378.093872 C352.219543,378.289948 352.585938,380.079559 353.272308,381.372437 C355.220123,385.041473 353.663727,388.157654 351.546356,391.082367 C350.588562,392.405365 349.012115,393.358887 349.533478,395.352478 C354.545593,394.852234 357.822418,391.244537 357.278046,386.409424 C356.719727,381.450378 361.029144,378.694611 362.397369,374.570587 C363.023010,372.684814 365.119873,374.573730 366.173645,375.953674 C368.572327,373.375763 370.549469,370.929810 373.884460,370.144989 C377.230255,369.357574 378.703918,369.968445 377.877014,373.775909 C376.694336,379.221436 373.189941,382.405670 368.258209,384.332916 C363.585938,386.158752 358.455811,392.785339 358.322571,397.267151 C351.611847,395.689148 349.203918,402.578888 342.724457,404.393219 C348.041016,405.813965 351.553833,406.159180 355.140472,403.318817 C358.212799,400.885803 362.103485,400.246002 366.059937,400.659210 C367.573700,400.817291 369.202209,401.027313 369.626862,402.790222 C369.972870,404.226654 369.086304,405.393616 367.942993,406.166351 C365.789276,407.621857 363.530823,408.551758 363.198547,411.942352 C363.006378,413.903778 359.928070,414.257019 359.120911,412.149628 C357.364441,407.563751 353.245056,407.808014 350.012024,407.696228 C334.748291,407.168365 322.357941,415.089203 309.680298,422.256805 C314.901001,420.861115 319.812164,422.220093 324.873444,423.061615 C329.231262,423.786194 333.898041,423.539642 336.868500,419.064606 C337.501495,418.110992 338.391907,417.292358 339.281891,416.554016 C340.520233,415.526764 342.027313,415.267761 343.495972,415.906921 C343.929596,416.095673 344.358368,417.012482 344.283630,417.521423 C344.032135,419.234894 342.501587,419.177246 341.217926,419.484711 C340.022949,419.770905 339.096069,420.415070 339.161926,421.971527 C341.427734,423.565918 343.551575,422.196075 345.703705,421.599274 C350.331818,420.315857 355.533997,422.020447 358.191284,425.627808 C360.086487,428.200562 359.525360,429.850891 356.499786,430.834320 C351.765808,432.373016 348.053009,430.290863 344.545349,427.533234 C340.679565,424.494049 336.467255,424.407623 331.424805,425.563965 C333.655792,429.433563 335.845764,430.928192 340.047455,426.528534 C339.552948,431.964752 342.491211,435.378967 342.309967,439.597046 C342.243683,441.140045 342.028137,442.676025 340.441711,443.407715 C338.743439,444.190979 337.618591,442.909180 336.466614,442.005951 C334.545441,440.499786 333.535828,438.365021 332.924103,436.099457 C330.855560,428.438477 326.203522,424.783478 318.192963,424.338348 C306.663849,423.697723 297.662140,428.434937 290.317017,436.973358 C277.064117,452.379181 267.735687,469.546631 264.114014,489.892029 C259.396240,516.395142 263.038208,542.184814 268.889801,567.933411 C275.488556,596.969421 281.485626,626.050598 280.435425,656.127380 C280.095245,665.870850 278.429962,675.347717 275.874573,684.573425 C271.323547,701.003845 279.883789,713.312256 289.077057,719.261230 C296.651245,724.162537 305.339294,725.229187 313.938141,725.382996 C323.407410,725.552307 332.433868,726.947815 341.255890,730.339355 C345.206451,731.858032 349.395172,732.757080 353.649750,733.428162 C350.636993,734.765808 347.367645,735.014832 344.599121,733.866272 C332.416718,728.812256 319.756500,727.319519 306.400208,728.154907 C313.418457,729.654846 320.239136,731.104858 326.382202,736.750610 C322.624664,737.159607 320.902679,735.260132 318.926910,734.339783 C312.089783,731.154907 304.770935,730.914734 297.481079,730.385681 C290.827148,729.902710 284.234222,729.179504 277.979645,726.585632 C271.424988,723.867188 268.126038,718.950317 267.804626,711.950623 C267.619568,707.920410 268.417725,704.001221 269.270782,700.092834 C273.451019,680.940430 278.970398,661.886475 277.504547,642.041809 C276.023621,621.993103 273.430450,602.053284 268.813232,582.409058 C263.255249,558.762512 258.100037,535.024719 258.627838,510.498291 C256.043671,537.851685 259.738831,564.532410 266.973663,590.880005 C271.650269,607.911255 275.478668,625.059875 274.387054,642.981995 C273.756378,653.336487 272.131348,663.526550 269.731415,673.523254 C266.277374,687.910583 262.342682,702.259155 256.047699,715.706909 C251.062683,726.356262 243.233307,734.503784 231.021545,739.189880 C233.115707,734.460144 238.347809,734.348145 240.335373,730.220032 C228.017532,734.367981 214.588394,733.579346 203.313522,743.497925 C204.989838,739.031494 205.830994,738.077393 209.268646,736.312988 C215.097855,733.321106 221.310867,731.556030 227.785675,730.603699 C239.093216,728.940796 248.240707,723.892456 253.772095,713.489502 C254.805634,711.545654 256.202484,709.514404 255.052155,706.133118 C251.096634,710.331116 247.516373,714.114014 243.582397,717.525452 C235.671768,724.385498 226.511414,727.934814 216.250473,728.209839 C204.455948,728.525879 193.152283,730.498901 182.473740,735.637390 C181.949142,735.889893 181.273727,735.828918 180.618561,735.920898 C180.217316,733.765320 181.841568,733.549011 182.891464,733.033875 C191.505814,728.806763 200.648376,725.888489 210.197113,725.955872 C232.505066,726.113220 246.697525,713.728210 257.669556,696.257874 C265.372467,683.992737 267.691040,669.954773 269.658386,655.909973 C273.200684,630.621399 268.206329,606.402161 261.563324,582.090820 C255.001694,558.077515 252.714600,533.371582 255.511963,508.424866 C258.717224,479.840424 263.115814,451.447784 269.835358,423.463348 C271.539551,416.365967 273.369934,409.167480 276.298706,402.525391 C281.110199,391.613617 279.812317,380.454041 278.016876,369.595032 C275.634827,355.188507 269.051575,342.467804 260.184845,330.557526 C252.879013,320.743927 229.133331,316.921448 221.062180,326.124817 C217.693253,329.966339 216.674652,333.152649 219.614853,337.444397 C222.294693,341.356140 221.946930,345.283112 219.831604,349.177521 C218.699524,351.261719 216.948792,351.555420 215.538071,349.459198 C213.254944,346.066681 211.486771,342.538788 213.903122,338.342865 C214.821548,336.748016 216.245102,335.074402 214.670593,332.058350 C210.910095,336.364014 206.505844,339.342865 205.342346,344.943726 C204.048447,351.172363 199.909943,354.463928 193.574738,356.214630 C190.089005,345.334900 199.713684,342.919525 205.551392,338.544464 C203.218765,336.317108 201.545502,338.681702 199.745422,337.300873 C200.216095,334.100311 202.248184,332.263947 205.353165,333.076874 C208.170654,333.814545 209.630188,332.748016 211.447571,331.073578 C215.342041,327.485413 219.436157,324.113953 224.153152,320.046082 C218.004364,319.247620 213.055328,320.630890 208.655273,323.509918 C204.610519,326.156464 200.570282,327.336609 195.951721,325.672485 C194.567535,325.173706 193.033020,324.618591 192.742203,322.859863 C192.427750,320.958191 194.019897,320.285370 195.216858,319.480652 C199.471558,316.620270 204.171631,317.220245 208.708862,318.291443 C211.344742,318.913757 213.537445,318.895630 215.742722,317.293701 C214.417694,315.535248 209.621414,316.741516 211.215286,313.481537 C212.737839,310.367493 215.468582,313.386841 217.411942,314.498718 C220.752274,316.409851 223.940216,317.485077 228.095291,317.460968 C233.809341,317.427795 239.717606,316.786682 245.552673,318.507935 C241.309341,313.231384 235.560623,310.097321 230.001617,306.955841 C218.713562,300.576691 207.321350,294.339142 195.354691,289.269196 C191.380737,287.585510 187.413818,285.805878 183.295578,284.559540 C176.065414,282.371368 170.201553,286.417542 169.337540,293.893463 C169.158356,295.443848 168.976593,297.507233 167.078659,296.998779 C163.565308,296.057617 166.511322,293.475281 166.182602,291.359894 C163.393356,292.579102 162.378540,294.624329 162.312836,297.493988 C162.201691,302.348236 159.433121,305.430786 155.296921,307.593811 C152.211121,309.207581 150.940720,308.023041 150.768005,304.923340 C150.505478,300.211121 152.015228,296.419891 156.691544,294.221405 C154.177200,292.096741 154.167984,289.772552 157.566208,289.917114 C164.654633,290.218781 168.973328,285.147919 175.536865,282.100891 C167.538315,280.698212 160.488876,280.731445 153.536346,281.619843 C149.788361,282.098755 147.777573,285.656403 146.644913,288.924072 C145.038162,293.559387 142.921158,293.149719 139.946564,290.381714 C137.484940,291.708374 135.297089,293.659424 132.375885,294.024719 C130.556274,294.252319 128.474655,294.643921 127.290558,292.926453 C125.912773,290.928009 127.301460,289.007874 128.488632,287.477081 C130.738358,284.576111 133.954712,282.959808 137.535995,282.754242 C146.592377,282.234436 154.672638,277.861145 164.842773,276.887360 C159.163345,271.826202 149.179260,271.919159 151.051315,261.922974 C155.842499,261.240692 160.259766,263.600800 162.037628,267.665649 C165.891861,276.477936 172.063766,280.303192 182.200409,279.995331 C181.969421,276.412964 180.378448,273.325867 178.786926,270.278381 C176.693069,266.268982 177.204681,262.579163 179.828934,259.066193 C181.442383,256.906372 182.969528,256.843048 184.412766,259.305206 C186.114456,262.208252 186.506882,265.026672 185.146271,268.317291 C182.329056,275.130768 185.039627,281.707367 191.902695,284.550781 C205.602509,290.226746 218.684738,297.095978 231.609100,304.322174 C246.899658,312.871338 260.227509,323.564117 270.261627,339.291382 C268.779083,316.884003 262.226257,297.493378 246.972275,281.763947 C242.296021,276.941925 236.299500,275.023407 229.604721,277.514771 C225.215317,279.148224 221.330170,278.039429 217.877792,275.414520 C215.508926,273.613434 215.177155,271.621826 218.722397,270.446564 C222.921005,269.054718 227.137283,268.971466 230.582870,271.790863 C233.026810,273.790680 235.727219,273.670319 238.652893,274.168030 C231.348038,267.486969 226.442444,258.635071 218.221237,253.021255 C213.737854,249.959808 211.355042,245.909378 210.835266,240.646225 C210.706985,239.347244 210.546463,237.831055 211.848618,236.986481 C213.341995,236.017914 214.691330,236.879196 216.005768,237.676682 C219.062149,239.531036 221.729568,241.703568 222.891907,246.025452 C223.789642,250.154861 222.984299,254.240448 227.160583,256.607513 C226.544128,252.564026 225.761963,248.892090 222.982697,246.002502 C223.111404,244.346893 223.719849,242.873215 225.594772,243.006348 C227.332733,243.129745 227.982407,244.688400 228.197067,246.225983 C228.379410,247.531952 228.238968,248.879425 228.344452,250.200272 C229.194199,260.839966 235.513367,267.957672 244.103851,274.238647 C245.005859,268.769958 242.911575,264.934631 238.490417,261.655823 C242.333466,259.451019 241.078720,255.335297 242.878632,252.480652 C244.099792,250.543854 245.286316,247.709839 247.849808,248.286209 C250.369492,248.852707 250.458206,251.723984 250.446060,254.127197 C250.436676,255.985123 250.468887,257.886658 249.384460,259.438049 C243.467468,267.903168 246.296432,275.437439 251.749405,282.711212 C255.198792,287.312378 258.687378,291.884155 262.335876,296.703613 C263.687439,294.321686 261.766052,289.862244 265.751343,290.388397 C269.031342,290.821442 268.093079,295.274323 267.545349,296.776550 C263.409027,308.121429 271.624023,317.515228 271.969238,328.079651 C272.152985,333.701599 274.712738,339.046417 274.355347,344.775726 C274.133850,348.326355 276.371490,351.067749 277.459747,354.160645 C280.279510,362.174774 281.382019,370.527252 283.077209,380.185883 C286.154327,371.496155 287.449860,363.679443 288.425842,355.948730 C289.569366,346.891266 291.780518,337.991913 292.167023,328.822845 C292.952026,310.199310 293.749908,291.637024 289.398102,273.219177 C287.718262,266.109650 286.821930,258.790161 283.172760,252.362930 C279.327667,245.590683 273.833618,241.294250 265.391144,242.258392 C261.822510,242.665924 258.917664,241.116089 256.615417,238.400818 C255.413910,236.983841 253.907288,235.433441 255.226364,233.579849 C256.306458,232.062073 258.296204,231.483047 260.174683,231.859711 C262.796051,232.385361 265.572906,233.096024 267.103668,235.462997 C269.549683,239.245224 273.411285,240.644196 278.064575,242.657440 C272.367310,232.282089 265.003296,224.362305 256.340698,217.756134 C246.720886,210.419968 237.411438,202.514618 225.786804,198.231903 C220.641159,196.336182 215.581970,194.201157 210.102417,193.474823 C205.322556,192.841232 199.669357,196.289261 197.980133,201.128418 C196.819946,204.452087 195.113464,207.074600 191.877380,208.605072 C190.450653,209.279816 188.891449,209.727615 187.604233,208.795914 C186.147781,207.741730 186.711182,206.102722 187.217957,204.668869 C188.127579,202.095184 189.430618,199.808258 191.989517,198.510696 C193.906937,197.538406 195.898132,196.692673 197.738770,195.593491 C199.423676,194.587265 200.950775,193.316788 202.773560,191.999313 C194.444336,190.022430 187.357437,191.864487 181.366913,197.709702 C179.205154,199.819016 176.682571,200.964294 173.726028,200.697098 C171.518005,200.497528 168.273224,200.823639 168.055740,197.890839 C167.835953,194.927048 170.686569,193.353821 173.315674,192.834351 C175.722549,192.358765 178.291199,192.674942 180.788254,192.690750 C182.975769,192.704590 185.183334,192.838043 186.605545,190.170258 C181.822113,187.816986 177.112534,185.699432 171.546768,186.303604 C167.408798,186.752792 164.094543,184.710739 161.342560,181.904922 C158.688828,179.199265 159.404999,177.365555 163.066940,176.299377 C166.825485,175.205063 170.603821,177.856277 174.644608,175.598389 C176.221497,174.717270 177.486404,178.252075 177.017715,180.527039 C176.686996,182.132309 176.381516,183.677032 178.256882,184.271072 C182.300278,185.551895 186.409515,186.624817 190.704987,187.843262 C190.661011,185.380356 189.272873,184.761551 188.005066,183.963226 C186.602203,183.079865 185.173218,182.173492 183.974976,181.044357 C182.034256,179.215591 181.289444,176.846649 181.825302,174.211487 C182.105591,172.833160 183.211533,172.356796 184.507034,172.649689 C187.332886,173.288559 189.274780,175.080200 190.128769,177.790268 C192.876236,186.509171 195.991379,188.827362 205.332764,189.681244 C210.970215,190.196564 216.433975,191.766769 221.744492,193.759521 C223.903488,194.569672 226.028229,195.448273 228.683548,195.449173 C224.694992,188.600708 219.944504,183.645294 211.330811,185.041885 C210.727493,185.139709 210.051819,184.717316 209.398773,184.596420 C207.441193,184.233994 206.001526,183.247177 205.416214,181.275482 C205.079025,180.139572 205.612778,179.261292 206.610672,178.839050 C208.365158,178.096680 210.103546,178.054977 211.887085,179.034210 C214.072647,180.234161 215.304260,183.303894 218.561035,182.686752 C217.215759,173.493332 211.362350,169.092545 202.941071,169.513153 C198.614151,169.729233 194.597672,169.215500 191.712143,165.522781 C190.708511,164.238388 189.346436,162.894089 190.301834,161.088730 C191.122009,159.538910 192.859467,159.520889 194.311508,159.706757 C197.230606,160.080414 200.100708,161.116150 202.595535,158.367447 C203.230728,157.667618 204.523392,158.281525 205.219147,159.119705 C206.930222,161.181030 204.314590,162.244873 203.908066,163.435776 C205.674713,167.642319 209.143433,167.708130 213.030060,168.177795 C210.457626,158.351562 207.326035,149.085815 201.174225,141.059036 C200.119843,139.683304 198.632935,139.696899 197.227371,139.248917 C192.017181,137.588348 189.297668,133.924316 189.611191,129.459473 C189.773239,127.151627 190.804993,125.583282 192.995865,126.768539 C195.800873,128.286026 198.591019,128.132004 202.507431,127.603836 C199.024551,136.272812 204.854630,141.284637 208.762451,147.482880 C211.328537,145.302887 210.632965,143.162857 210.077927,140.877808 C209.031204,136.568359 208.983887,132.311584 211.911087,128.560715 C212.731201,127.509842 213.604416,126.318161 215.125961,126.534477 C216.720734,126.761215 216.939713,128.204926 217.342651,129.494736 C218.645096,133.663879 217.744141,137.388992 215.181381,140.785049 C211.708023,145.387817 211.271881,155.046265 214.574951,160.547867 C215.899536,157.353928 216.424530,154.014984 218.701828,151.571228 C219.857162,150.331451 221.084671,149.122711 222.998917,149.645248 C224.811508,150.140045 224.007919,151.817780 224.442200,152.954117 C225.486420,155.686493 227.146576,158.278137 225.051529,161.417191 C228.434998,158.717834 230.097824,154.634048 234.012299,152.868927 C235.986847,151.978531 238.260315,150.528442 240.043304,152.260117 C241.798355,153.964676 240.478516,156.394531 239.652603,158.304535 C238.235092,161.582687 235.284576,163.374298 232.105682,164.448181 C228.614563,165.627548 226.723236,167.792923 225.559906,171.248856 C223.333191,177.863815 222.716156,183.786285 228.076706,189.587128 C233.756226,195.733154 239.503754,201.626297 246.566269,206.217422 C258.729889,214.124634 269.391785,223.706680 278.061188,235.526871 C275.808594,228.630249 274.858673,221.558960 273.560455,214.567001 C273.168732,212.457382 271.991394,210.874771 270.587646,209.478119 C266.460236,205.371521 263.936554,199.974380 259.354858,196.172073 C256.320435,193.653809 255.953751,189.755936 256.740234,185.990540 C257.389832,182.880600 259.187042,182.170303 261.756897,184.262711 C264.794983,186.736313 266.800354,190.083481 266.057434,193.847565 C264.875702,199.835327 268.639038,202.956055 272.865112,206.521027 C273.177216,197.488861 273.825806,188.453079 273.728424,179.425339 C273.549164,162.808563 268.977203,147.317215 260.687561,132.911880 C258.843597,129.707504 256.257812,128.049927 252.497635,128.378403 C250.096649,128.588135 247.823120,128.018555 245.813126,126.759239 C244.536423,125.959396 243.317001,124.745697 244.220505,123.044563 C245.039032,121.503403 246.439178,122.167458 247.754410,122.499405 C250.334732,123.150665 252.110779,125.587128 254.974426,125.805832 C252.863602,118.469330 246.109421,112.875877 238.812866,112.233566 C233.578278,111.772774 230.532837,108.275307 228.140274,104.120079 C227.063034,102.249214 227.831879,100.827995 230.109360,100.731323 C231.755295,100.661453 233.600250,100.412910 235.031219,101.015862 C240.306152,103.238487 243.153336,100.499557 245.539490,96.411568 C246.373215,94.983231 247.322815,93.648392 249.078690,92.905670 C253.809769,95.988930 252.587753,100.677010 252.069229,104.692993 C251.315689,110.529213 251.806427,115.657417 255.819138,120.321022 C258.181396,123.066467 259.945923,126.326225 262.474548,130.092270 C262.744598,123.106033 261.298187,116.997780 262.358765,110.748962 C263.192688,105.835487 263.831665,100.901070 265.111237,96.066246 C266.064850,92.463020 265.880035,89.008972 262.570007,86.622452 C259.796265,84.622581 260.938721,82.405403 261.339478,79.809486 C265.754761,80.022583 266.035339,83.321373 267.303040,86.055405 C268.955750,81.263023 271.489838,76.740906 269.214172,71.242569 C268.998810,71.006973 269.024048,71.043564 269.024048,71.043564 M290.176605,723.581909 C281.619537,718.586914 274.909637,712.061890 272.451782,701.750061 C271.892303,704.007935 271.406677,705.930298 270.940155,707.857300 C269.631287,713.264099 271.863037,719.421387 276.223572,722.456299 C281.578674,726.183533 293.456573,728.366211 301.346741,726.628113 C296.938660,726.452393 293.910736,725.133118 290.176605,723.581909 M268.442200,444.655151 C265.906586,455.359528 265.864319,466.493500 262.910828,477.143890 C269.186951,455.384888 273.216400,433.147888 277.317139,410.916870 C273.409576,421.662811 270.471710,432.663757 268.442200,444.655151 M223.948715,165.236908 C223.741943,164.609695 223.487579,163.993652 223.337204,163.353195 C222.866959,161.350220 221.709473,160.273117 219.577179,160.175034 C217.132431,160.062607 217.132568,162.175690 216.639862,163.529327 C214.710800,168.829269 217.751877,172.685120 220.476868,177.525909 C222.756271,173.245972 223.598007,169.625931 223.948715,165.236908 M271.252533,58.959419 C270.067841,61.307972 270.245483,63.753365 270.661865,66.272354 C273.241058,64.495361 273.241058,64.495361 275.299561,66.201271 C276.320068,63.824203 276.745453,61.475735 275.840881,58.944664 C274.763733,55.930790 273.432434,55.458172 271.252533,58.959419 M397.805267,283.032654 C399.908997,282.516510 402.531982,283.535370 404.005829,281.045532 C400.203003,276.104675 398.269684,276.359100 393.586487,282.458771 C394.802704,282.659149 395.929138,282.844727 397.805267,283.032654 M343.898254,318.336182 C343.297119,318.808533 342.369080,319.005737 342.453217,320.416443 C345.948486,320.439941 349.468811,321.468414 353.418121,319.720947 C350.854431,315.011475 347.340973,318.135620 343.898254,318.336182 M369.959930,302.006897 C371.998596,302.779816 374.016083,302.981140 376.121674,302.034271 C373.084198,296.596680 372.025635,296.436127 367.177185,300.552734 C367.940918,300.959595 368.661377,301.343414 369.959930,302.006897 M293.043823,85.843773 C288.537506,83.711098 286.009155,84.880325 285.453735,89.576599 C288.643677,90.036522 291.243988,89.262207 293.043823,85.843773 M297.023834,122.218628 C294.818909,125.220169 299.392578,124.685471 298.834198,128.057877 C300.828979,124.021095 302.951721,121.637299 302.095490,118.168327 C299.383606,118.185341 298.758850,120.446526 297.023834,122.218628 M303.927002,154.404251 C307.368835,154.925308 309.793610,153.374176 311.842255,150.710739 C306.068604,148.344238 304.042480,149.271988 303.927002,154.404251 M347.823120,172.491562 C351.153809,171.055786 353.620850,169.055817 353.125366,164.236420 C349.906403,166.429718 345.575104,166.960159 347.823120,172.491562 M359.196106,259.957825 C360.495911,260.119781 362.113220,260.624542 362.438782,258.759003 C362.862244,256.332458 363.057861,253.791809 359.936188,252.095673 C358.720947,254.580811 357.534210,256.846436 359.196106,259.957825 M201.462723,323.672668 C204.057587,323.749451 205.306595,322.432251 205.450104,319.823334 C202.141907,319.013611 199.323639,319.447296 197.127258,322.362244 C198.143234,323.762329 199.472046,323.695831 201.462723,323.672668 M360.236877,328.317261 C359.338623,325.209259 357.094330,324.011658 354.072754,323.648712 C353.658020,328.395294 355.190552,329.664124 360.236877,328.317261 M239.214691,106.953987 C237.653076,103.756973 235.351379,103.061882 231.999741,104.326050 C233.128265,107.146049 235.156555,107.988609 237.047409,108.998474 C238.794174,109.931381 239.016403,108.763443 239.214691,106.953987 M246.687134,106.092049 C245.924530,105.603012 246.018723,104.152031 244.342941,104.311592 C242.470398,108.904785 245.545471,110.476280 249.270706,112.372116 C249.194855,109.783752 248.598190,108.014801 246.687134,106.092049 M218.861664,244.182922 C217.871368,242.600098 217.064835,240.749542 214.653366,241.045258 C213.770981,243.333694 214.764496,244.995102 215.699554,246.723923 C216.841324,248.834869 218.435501,247.300537 219.436356,246.942032 C220.990982,246.385178 219.155579,245.510437 218.861664,244.182922 M323.459076,276.454010 C322.756683,275.822235 322.203217,274.854126 320.867676,275.402527 C319.712433,277.989319 320.770355,280.111816 322.613800,281.895172 C323.501617,282.754028 324.631104,282.019836 325.140900,281.259430 C326.371246,279.424286 324.620911,278.307007 323.459076,276.454010 M197.681564,346.537964 C196.577255,348.217957 195.046082,349.780792 195.914749,352.216034 C198.687302,351.711853 200.411118,350.290741 200.819092,347.813171 C201.159653,345.745087 200.510880,344.385162 197.681564,346.537964 M346.910980,201.656631 C345.108246,201.948959 343.733643,202.811966 342.769257,204.429520 C346.081360,206.212479 348.916779,205.527298 352.078888,203.917175 C351.312836,203.199127 350.918854,202.604614 350.370331,202.367111 C349.487488,201.984818 348.502594,201.838211 346.910980,201.656631 M130.719116,290.748718 C136.333740,290.829895 137.768936,289.574127 136.486191,285.568481 C134.089539,286.597229 131.472076,287.273956 130.719116,290.748718 M365.667175,404.172791 C362.308472,401.845245 359.928772,403.390656 357.313385,406.144501 C360.914185,408.470062 363.087799,406.090424 365.667175,404.172791 M354.789734,426.306122 C353.348969,425.526917 351.944214,424.667084 350.452972,424.000793 C349.646454,423.640472 348.737030,423.945435 348.389374,424.823456 C348.177032,425.359650 348.129272,426.157684 348.380310,426.646790 C349.486176,428.801239 352.945679,428.855072 354.789734,426.306122 M230.799240,159.413986 C233.774750,161.837555 235.607880,160.795792 237.113342,155.607849 C234.089081,154.977814 232.560104,156.894516 230.799240,159.413986 M153.956116,301.398285 C153.574020,302.466156 152.954819,303.698486 154.375809,304.353210 C155.648163,304.939453 156.488525,303.833923 157.228088,303.006805 C158.647415,301.419464 159.502502,299.749481 157.325745,298.028046 C155.510773,298.110565 155.117249,299.726654 153.956116,301.398285 M323.573242,177.784683 C319.317566,179.903061 322.004456,182.289871 322.962311,184.780533 C326.936401,182.825989 325.507446,180.529892 323.573242,177.784683 M225.525803,272.147827 C223.467804,271.028503 221.872620,271.969238 220.080994,273.018524 C221.635284,275.109833 223.419785,275.903473 225.498932,275.318390 C227.042831,274.883911 226.754105,273.640839 225.525803,272.147827 M330.915680,289.039185 C331.923401,287.528564 332.580566,285.945923 332.079285,284.128571 C330.253204,283.503326 328.465576,283.208344 327.923767,285.392303 C327.463226,287.248779 327.997223,288.988342 330.915680,289.039185 M332.540497,218.989929 C332.416321,219.992706 332.381989,221.377975 333.695953,221.074631 C335.933807,220.557999 338.530151,220.054565 338.898834,216.871460 C336.274933,215.946381 334.558472,217.227173 332.540497,218.989929 M372.479492,378.523590 C373.246307,376.867554 375.415436,375.720764 374.240906,372.944122 C372.075073,373.571960 370.307159,374.681519 369.786438,376.854950 C369.503998,378.033661 370.036926,379.595673 372.479492,378.523590 M336.224182,433.456024 C334.551300,436.695343 336.348114,438.388580 339.205048,440.284485 C339.675354,437.023529 339.418060,434.674866 336.224182,433.456024 M244.461716,255.706345 C244.332962,256.638062 243.653625,257.593048 244.824509,258.736267 C247.990829,257.463593 249.045868,255.472000 247.477188,252.144974 C245.640457,252.618332 245.254791,253.955643 244.461716,255.706345 M167.262955,182.903427 C169.215698,183.651764 170.668350,182.670929 169.891068,180.952972 C168.658722,178.229172 166.097122,178.327911 163.541809,179.549561 C164.124863,181.185699 165.453888,181.883011 167.262955,182.903427 M198.432297,163.065918 C196.859329,162.276443 195.361633,162.428253 193.598587,163.512436 C195.299179,165.177795 196.769714,166.782227 199.014572,167.278183 C200.490372,165.754608 200.335052,164.534241 198.432297,163.065918 M321.994629,382.059998 C316.556976,383.076782 320.334747,385.628326 320.727142,387.882538 C323.929291,386.555023 323.187622,384.544128 321.994629,382.059998 M192.462509,131.632858 C194.557495,135.203110 194.557495,135.203110 197.405289,133.555435 C196.554657,131.712311 195.042740,130.483704 193.301270,129.710266 C192.110596,129.181458 192.118423,130.243668 192.462509,131.632858 M261.334076,187.663300 C259.295471,186.572952 259.024963,187.857315 259.172241,189.381546 C259.389771,191.632767 260.343323,193.057816 263.126770,192.288025 C263.299500,190.554855 262.625305,189.298416 261.334076,187.663300 M304.758698,210.946991 C305.631348,213.699524 307.069885,211.988571 308.752869,211.590591 C307.717499,209.571259 307.739807,207.198181 305.061432,206.893494 C304.097443,208.150833 304.482483,209.284805 304.758698,210.946991 M262.130432,235.002014 C260.780823,234.721893 259.492859,234.579727 258.963165,236.531616 C260.368530,237.964508 261.632812,240.501587 264.014282,238.702667 C265.663055,237.457169 263.881256,236.158630 262.130432,235.002014 M324.668152,238.657242 C325.084778,237.901031 325.384338,236.784561 324.348206,236.714203 C322.433411,236.584198 320.531433,237.028717 319.655426,239.343063 C321.432312,241.341965 322.869629,240.348465 324.668152,238.657242 M219.091492,343.811523 C219.237549,342.557007 219.006989,341.512909 217.517502,341.325317 C216.648514,341.215881 215.858887,341.485229 215.637848,342.426605 C215.234268,344.145538 215.621338,345.605896 217.235092,346.545532 C218.446564,346.289368 218.596085,345.262878 219.091492,343.811523 M190.561234,203.645447 C190.360306,204.601791 190.091064,205.969223 191.570557,205.618622 C193.796753,205.091064 195.173950,203.627930 194.465591,201.067276 C192.321609,200.481766 191.750061,202.067810 190.561234,203.645447 M280.418518,133.260040 C280.651825,134.687714 280.782410,136.192657 283.006653,136.401932 C284.479889,134.349884 284.028870,132.481262 282.032410,131.194199 C280.682343,130.323853 280.646637,131.820023 280.418518,133.260040 M247.749878,98.615662 C247.380737,100.009155 246.708923,101.587440 248.550873,102.356163 C249.584778,102.787659 250.504379,102.059395 250.519547,100.896721 C250.539352,99.378189 250.971207,97.287369 247.749878,98.615662 M215.022385,135.483612 C215.684647,133.913055 216.024323,132.397873 214.262909,131.140488 C212.054794,132.156830 211.775177,134.156418 212.235779,136.018509 C212.500137,137.087311 213.832489,136.683502 215.022385,135.483612 M156.933426,269.781982 C158.422531,270.321747 159.496918,269.403748 159.140549,268.249329 C158.517365,266.230591 156.786942,265.491699 154.647247,265.976532 C154.418976,267.793152 155.659317,268.509705 156.933426,269.781982 M175.037231,198.308975 C176.393997,197.558624 177.650146,196.763184 176.594482,194.823914 C174.605637,194.703644 173.078918,195.335602 172.099503,197.047256 C172.490662,198.328873 173.433380,198.480576 175.037231,198.308975 z"/>
<path fill="#000000" opacity="1.000000" stroke="none" d="M344.014587,167.963715 C343.640045,168.477722 343.206177,168.984009 342.880402,169.552261 C341.980225,171.122452 341.171722,173.239960 338.892212,172.041641 C336.909821,170.999542 337.856659,169.114731 338.706512,167.725159 C340.101288,165.444580 341.813782,164.791916 343.823181,167.689743 C343.981415,168.023514 344.004547,167.984299 344.014587,167.963715 z"/>
<path fill="#000000" opacity="1.000000" stroke="none" d="M268.983795,70.990646 C269.207703,72.539154 270.004456,74.257080 268.109100,75.342918 C267.358124,75.773140 266.427826,75.576508 265.875397,74.902824 C264.246246,72.916145 264.440399,70.782967 265.318054,68.664619 C267.400513,68.055099 267.447845,70.058075 268.752930,70.832489 C269.024048,71.043564 268.998810,71.006973 268.983795,70.990646 z"/>
<path fill="#000000" opacity="1.000000" stroke="none" d="M299.487427,159.117828 C301.160278,158.794281 302.700195,156.738373 303.804138,159.297699 C304.379395,160.631302 303.265839,161.509964 302.194122,161.871506 C300.372131,162.486145 298.576965,162.328278 297.865723,160.156799 C297.653473,159.508881 298.472351,159.149338 299.487427,159.117828 z"/>
</svg>
